<?xml version="1.0" encoding="UTF-8"?>
<svg width="137px" height="61px" viewBox="0 0 137 61" version="1.1" xmlns="http://www.w3.org/2000/svg" xmlns:xlink="http://www.w3.org/1999/xlink">
    <title>Logo 2</title>
    <g id="Logo" stroke="none" stroke-width="1" fill="none" fill-rule="evenodd">
        <g id="Logo-2" transform="translate(0.6946, 0.358)" fill="#000000" fill-rule="nonzero">
            <g id="REST-ART" transform="translate(1.0753, -0)">
                <path d="M0,20.6420455 L0,0.278409091 L8.03409091,0.278409091 C9.5719697,0.278409091 10.8861269,0.551846591 11.9765625,1.09872159 C13.0669981,1.64559659 13.898911,2.41785038 14.4723011,3.41548295 C15.0456913,4.41311553 15.3323864,5.58475379 15.3323864,6.93039773 C15.3323864,8.28267045 15.0407197,9.44436553 14.4573864,10.415483 C13.874053,11.3866004 13.0305398,12.1306818 11.9268466,12.6477273 C10.8231534,13.1647727 9.48910985,13.4232955 7.92471591,13.4232955 L2.54545455,13.4232955 L2.54545455,9.96306818 L7.22869318,9.96306818 C8.05066288,9.96306818 8.73342803,9.85037879 9.27698864,9.625 C9.82054924,9.39962121 10.2265625,9.06155303 10.4950284,8.61079545 C10.7634943,8.16003788 10.8977273,7.5999053 10.8977273,6.93039773 C10.8977273,6.25426136 10.7634943,5.68418561 10.4950284,5.22017045 C10.2265625,4.7561553 9.81889205,4.40317235 9.27201705,4.16122159 C8.72514205,3.91927083 8.0374053,3.79829545 7.20880682,3.79829545 L4.30539773,3.79829545 L4.30539773,20.6420455 L0,20.6420455 Z M10.9971591,11.375 L16.0582386,20.6420455 L11.3053977,20.6420455 L6.35369318,11.375 L10.9971591,11.375 Z" id="Shape"></path>
                <polygon id="Path" points="18.375 20.6420455 18.375 0.278409091 32.0965909 0.278409091 32.0965909 3.828125 22.6803977 3.828125 22.6803977 8.68039773 31.390625 8.68039773 31.390625 12.2301136 22.6803977 12.2301136 22.6803977 17.0923295 32.1363636 17.0923295 32.1363636 20.6420455"></polygon>
                <path d="M46.5738636,6.13494318 C46.4943182,5.33285985 46.1529356,4.70975379 45.5497159,4.265625 C44.9464962,3.82149621 44.1278409,3.59943182 43.09375,3.59943182 C42.3910985,3.59943182 41.797822,3.69720644 41.3139205,3.89275568 C40.8300189,4.08830492 40.460464,4.35842803 40.2052557,4.703125 C39.9500473,5.04782197 39.8224432,5.43892045 39.8224432,5.87642045 C39.8091856,6.24100379 39.8870739,6.55918561 40.056108,6.83096591 C40.225142,7.10274621 40.4588068,7.33641098 40.7571023,7.53196023 C41.0553977,7.72750947 41.4000947,7.89654356 41.7911932,8.0390625 C42.1822917,8.18158144 42.5999053,8.30255682 43.0440341,8.40198864 L44.8735795,8.83948864 C45.7618371,9.03835227 46.577178,9.30350379 47.3196023,9.63494318 C48.0620265,9.96638258 48.7050189,10.374053 49.2485795,10.8579545 C49.7921402,11.3418561 50.2147254,11.9119318 50.5163352,12.5681818 C50.8179451,13.2244318 50.9720644,13.9767992 50.9786932,14.8252841 C50.9720644,16.0714962 50.6555398,17.1503314 50.0291193,18.0617898 C49.4026989,18.9732481 48.5011837,19.679214 47.3245739,20.1796875 C46.147964,20.680161 44.7310606,20.9303977 43.0738636,20.9303977 C41.4299242,20.9303977 39.9997633,20.6785038 38.7833807,20.1747159 C37.5669981,19.670928 36.6190814,18.9235322 35.9396307,17.9325284 C35.2601799,16.9415246 34.9038826,15.7135417 34.8707386,14.2485795 L39.0369318,14.2485795 C39.0833333,14.9313447 39.2805398,15.4997633 39.6285511,15.9538352 C39.9765625,16.4079072 40.443892,16.7492898 41.0305398,16.977983 C41.6171875,17.2066761 42.2817235,17.3210227 43.0241477,17.3210227 C43.7533144,17.3210227 44.3880208,17.2149621 44.928267,17.0028409 C45.4685133,16.7907197 45.8877841,16.4957386 46.1860795,16.1178977 C46.484375,15.7400568 46.6335227,15.3058712 46.6335227,14.8153409 C46.6335227,14.3579545 46.4992898,13.9734848 46.2308239,13.6619318 C45.962358,13.3503788 45.5712595,13.0852273 45.0575284,12.8664773 C44.5437973,12.6477273 43.9157197,12.4488636 43.1732955,12.2698864 L40.9559659,11.7130682 C39.2391098,11.2954545 37.8835227,10.6425189 36.8892045,9.75426136 C35.8948864,8.86600379 35.4010417,7.66950758 35.4076705,6.16477273 C35.4010417,4.93181818 35.7308239,3.85464015 36.397017,2.93323864 C37.0632102,2.01183712 37.9796402,1.29261364 39.1463068,0.775568182 C40.3129735,0.258522727 41.6387311,0 43.1235795,0 C44.6349432,0 45.9557292,0.258522727 47.0859375,0.775568182 C48.2161458,1.29261364 49.0961174,2.01183712 49.7258523,2.93323864 C50.3555871,3.85464015 50.6803977,4.921875 50.7002841,6.13494318 L46.5738636,6.13494318 Z" id="Path"></path>
                <polygon id="Path" points="53.0866477 3.828125 53.0866477 0.278409091 69.8110795 0.278409091 69.8110795 3.828125 63.5767045 3.828125 63.5767045 20.6420455 59.3210227 20.6420455 59.3210227 3.828125"></polygon>
                <path d="M82.578125,20.6420455 L77.9644886,20.6420455 L84.9943182,0.278409091 L90.5426136,0.278409091 L97.5625,20.6420455 L92.9488636,20.6420455 L87.8480114,4.93181818 L87.6889205,4.93181818 L82.578125,20.6420455 Z M82.2897727,12.6377841 L93.1875,12.6377841 L93.1875,15.9985795 L82.2897727,15.9985795 L82.2897727,12.6377841 Z" id="Shape"></path>
                <path d="M100.008523,20.6420455 L100.008523,0.278409091 L108.042614,0.278409091 C109.580492,0.278409091 110.89465,0.551846591 111.985085,1.09872159 C113.075521,1.64559659 113.907434,2.41785038 114.480824,3.41548295 C115.054214,4.41311553 115.340909,5.58475379 115.340909,6.93039773 C115.340909,8.28267045 115.049242,9.44436553 114.465909,10.415483 C113.882576,11.3866004 113.039063,12.1306818 111.935369,12.6477273 C110.831676,13.1647727 109.497633,13.4232955 107.933239,13.4232955 L102.553977,13.4232955 L102.553977,9.96306818 L107.237216,9.96306818 C108.059186,9.96306818 108.741951,9.85037879 109.285511,9.625 C109.829072,9.39962121 110.235085,9.06155303 110.503551,8.61079545 C110.772017,8.16003788 110.90625,7.5999053 110.90625,6.93039773 C110.90625,6.25426136 110.772017,5.68418561 110.503551,5.22017045 C110.235085,4.7561553 109.827415,4.40317235 109.28054,4.16122159 C108.733665,3.91927083 108.045928,3.79829545 107.21733,3.79829545 L104.31392,3.79829545 L104.31392,20.6420455 L100.008523,20.6420455 Z M111.005682,11.375 L116.066761,20.6420455 L111.31392,20.6420455 L106.362216,11.375 L111.005682,11.375 Z" id="Shape"></path>
                <polygon id="Path" points="117.607955 3.828125 117.607955 0.278409091 134.332386 0.278409091 134.332386 3.828125 128.098011 3.828125 128.098011 20.6420455 123.84233 20.6420455 123.84233 3.828125"></polygon>
            </g>
            <g id="Poslovna-rješenja-i" transform="translate(-0, 33.4418)">
                <path d="M0.264204545,9.20028409 L0.264204545,0.473011364 L3.375,0.473011364 C4.05397727,0.473011364 4.61647727,0.596590909 5.0625,0.84375 C5.50852273,1.09090909 5.84232955,1.42826705 6.06392045,1.85582386 C6.28551136,2.28338068 6.39630682,2.76420455 6.39630682,3.29829545 C6.39630682,3.83522727 6.28480114,4.31747159 6.06178977,4.74502841 C5.83877841,5.17258523 5.50355114,5.51065341 5.05610795,5.75923295 C4.60866477,6.0078125 4.046875,6.13210227 3.37073864,6.13210227 L1.23153409,6.13210227 L1.23153409,5.015625 L3.25142045,5.015625 C3.68039773,5.015625 4.02840909,4.94105114 4.29545455,4.79190341 C4.5625,4.64275568 4.75852273,4.43892045 4.88352273,4.18039773 C5.00852273,3.921875 5.07102273,3.62784091 5.07102273,3.29829545 C5.07102273,2.96875 5.00852273,2.67613636 4.88352273,2.42045455 C4.75852273,2.16477273 4.56178977,1.96448864 4.29332386,1.81960227 C4.02485795,1.67471591 3.671875,1.60227273 3.234375,1.60227273 L1.58096591,1.60227273 L1.58096591,9.20028409 L0.264204545,9.20028409 Z" id="Path"></path>
                <path d="M10.5085227,9.33238636 C9.89488636,9.33238636 9.359375,9.19176136 8.90198864,8.91051136 C8.44460227,8.62926136 8.08948864,8.23579545 7.83664773,7.73011364 C7.58380682,7.22443182 7.45738636,6.63352273 7.45738636,5.95738636 C7.45738636,5.27840909 7.58380682,4.68465909 7.83664773,4.17613636 C8.08948864,3.66761364 8.44460227,3.27272727 8.90198864,2.99147727 C9.359375,2.71022727 9.89488636,2.56960227 10.5085227,2.56960227 C11.1221591,2.56960227 11.6576705,2.71022727 12.1150568,2.99147727 C12.5724432,3.27272727 12.9275568,3.66761364 13.1803977,4.17613636 C13.4332386,4.68465909 13.5596591,5.27840909 13.5596591,5.95738636 C13.5596591,6.63352273 13.4332386,7.22443182 13.1803977,7.73011364 C12.9275568,8.23579545 12.5724432,8.62926136 12.1150568,8.91051136 C11.6576705,9.19176136 11.1221591,9.33238636 10.5085227,9.33238636 Z M10.5127841,8.26278409 C10.9105114,8.26278409 11.2400568,8.15767045 11.5014205,7.94744318 C11.7627841,7.73721591 11.9566761,7.45738636 12.0830966,7.10795455 C12.209517,6.75852273 12.2727273,6.37357955 12.2727273,5.953125 C12.2727273,5.53551136 12.209517,5.15127841 12.0830966,4.80042614 C11.9566761,4.44957386 11.7627841,4.16761364 11.5014205,3.95454545 C11.2400568,3.74147727 10.9105114,3.63494318 10.5127841,3.63494318 C10.1122159,3.63494318 9.78053977,3.74147727 9.51775568,3.95454545 C9.25497159,4.16761364 9.06036932,4.44957386 8.93394886,4.80042614 C8.80752841,5.15127841 8.74431818,5.53551136 8.74431818,5.953125 C8.74431818,6.37357955 8.80752841,6.75852273 8.93394886,7.10795455 C9.06036932,7.45738636 9.25497159,7.73721591 9.51775568,7.94744318 C9.78053977,8.15767045 10.1122159,8.26278409 10.5127841,8.26278409 Z" id="Shape"></path>
                <path d="M19.8835227,4.25284091 L18.7286932,4.45738636 C18.6803977,4.30965909 18.6044034,4.16903409 18.5007102,4.03551136 C18.397017,3.90198864 18.2571023,3.79261364 18.0809659,3.70738636 C17.9048295,3.62215909 17.6846591,3.57954545 17.4204545,3.57954545 C17.0596591,3.57954545 16.7585227,3.65980114 16.5170455,3.8203125 C16.2755682,3.98082386 16.1548295,4.1875 16.1548295,4.44034091 C16.1548295,4.65909091 16.2357955,4.83522727 16.3977273,4.96875 C16.5596591,5.10227273 16.8210227,5.21164773 17.1818182,5.296875 L18.2215909,5.53551136 C18.8238636,5.67471591 19.2727273,5.88920455 19.5681818,6.17897727 C19.8636364,6.46875 20.0113636,6.84517045 20.0113636,7.30823864 C20.0113636,7.70028409 19.8984375,8.04900568 19.6725852,8.35440341 C19.446733,8.65980114 19.1328125,8.89914773 18.7308239,9.07244318 C18.3288352,9.24573864 17.8636364,9.33238636 17.3352273,9.33238636 C16.6022727,9.33238636 16.0042614,9.17542614 15.5411932,8.86150568 C15.078125,8.54758523 14.7940341,8.10085227 14.6889205,7.52130682 L15.9204545,7.33380682 C15.9971591,7.65482955 16.1548295,7.89701705 16.3934659,8.06036932 C16.6321023,8.22372159 16.9431818,8.30539773 17.3267045,8.30539773 C17.7443182,8.30539773 18.078125,8.21803977 18.328125,8.04332386 C18.578125,7.86860795 18.703125,7.65482955 18.703125,7.40198864 C18.703125,7.19744318 18.6271307,7.02556818 18.475142,6.88636364 C18.3231534,6.74715909 18.0909091,6.64204545 17.7784091,6.57102273 L16.6704545,6.328125 C16.0596591,6.18892045 15.6086648,5.96732955 15.3174716,5.66335227 C15.0262784,5.359375 14.8806818,4.97443182 14.8806818,4.50852273 C14.8806818,4.12215909 14.9886364,3.78409091 15.2045455,3.49431818 C15.4204545,3.20454545 15.71875,2.97798295 16.0994318,2.81463068 C16.4801136,2.65127841 16.9161932,2.56960227 17.4076705,2.56960227 C18.1150568,2.56960227 18.671875,2.72230114 19.078125,3.02769886 C19.484375,3.33309659 19.7528409,3.74147727 19.8835227,4.25284091 Z" id="Path"></path>
                <polygon id="Path" points="22.6832386 0.473011364 22.6832386 9.20028409 21.4090909 9.20028409 21.4090909 0.473011364"></polygon>
                <path d="M27.1534091,9.33238636 C26.5397727,9.33238636 26.0042614,9.19176136 25.546875,8.91051136 C25.0894886,8.62926136 24.734375,8.23579545 24.4815341,7.73011364 C24.2286932,7.22443182 24.1022727,6.63352273 24.1022727,5.95738636 C24.1022727,5.27840909 24.2286932,4.68465909 24.4815341,4.17613636 C24.734375,3.66761364 25.0894886,3.27272727 25.546875,2.99147727 C26.0042614,2.71022727 26.5397727,2.56960227 27.1534091,2.56960227 C27.7670455,2.56960227 28.3025568,2.71022727 28.7599432,2.99147727 C29.2173295,3.27272727 29.5724432,3.66761364 29.8252841,4.17613636 C30.078125,4.68465909 30.2045455,5.27840909 30.2045455,5.95738636 C30.2045455,6.63352273 30.078125,7.22443182 29.8252841,7.73011364 C29.5724432,8.23579545 29.2173295,8.62926136 28.7599432,8.91051136 C28.3025568,9.19176136 27.7670455,9.33238636 27.1534091,9.33238636 Z M27.1576705,8.26278409 C27.5553977,8.26278409 27.8849432,8.15767045 28.1463068,7.94744318 C28.4076705,7.73721591 28.6015625,7.45738636 28.727983,7.10795455 C28.8544034,6.75852273 28.9176136,6.37357955 28.9176136,5.953125 C28.9176136,5.53551136 28.8544034,5.15127841 28.727983,4.80042614 C28.6015625,4.44957386 28.4076705,4.16761364 28.1463068,3.95454545 C27.8849432,3.74147727 27.5553977,3.63494318 27.1576705,3.63494318 C26.7571023,3.63494318 26.4254261,3.74147727 26.162642,3.95454545 C25.899858,4.16761364 25.7052557,4.44957386 25.5788352,4.80042614 C25.4524148,5.15127841 25.3892045,5.53551136 25.3892045,5.953125 C25.3892045,6.37357955 25.4524148,6.75852273 25.5788352,7.10795455 C25.7052557,7.45738636 25.899858,7.73721591 26.162642,7.94744318 C26.4254261,8.15767045 26.7571023,8.26278409 27.1576705,8.26278409 Z" id="Shape"></path>
                <polygon id="Path" points="36.9928977 2.65482955 34.6193182 9.20028409 33.2556818 9.20028409 30.8778409 2.65482955 32.2457386 2.65482955 33.9034091 7.69176136 33.9715909 7.69176136 35.625 2.65482955"></polygon>
                <path d="M39.4644886,5.31392045 L39.4644886,9.20028409 L38.1903409,9.20028409 L38.1903409,2.65482955 L39.4133523,2.65482955 L39.4133523,3.72017045 L39.4943182,3.72017045 C39.6448864,3.37357955 39.881392,3.09517045 40.2038352,2.88494318 C40.5262784,2.67471591 40.9332386,2.56960227 41.4247159,2.56960227 C41.8707386,2.56960227 42.2613636,2.66264205 42.5965909,2.84872159 C42.9318182,3.03480114 43.1917614,3.31107955 43.3764205,3.67755682 C43.5610795,4.04403409 43.6534091,4.49715909 43.6534091,5.03693182 L43.6534091,9.20028409 L42.3792614,9.20028409 L42.3792614,5.19034091 C42.3792614,4.71590909 42.2556818,4.34446023 42.0085227,4.07599432 C41.7613636,3.80752841 41.421875,3.67329545 40.9900568,3.67329545 C40.6946023,3.67329545 40.4325284,3.73721591 40.2038352,3.86505682 C39.975142,3.99289773 39.7947443,4.1796875 39.662642,4.42542614 C39.5305398,4.67116477 39.4644886,4.96732955 39.4644886,5.31392045 Z" id="Path"></path>
                <path d="M47.2627841,9.34517045 C46.8480114,9.34517045 46.4730114,9.26775568 46.1377841,9.11292614 C45.8025568,8.95809659 45.537642,8.73295455 45.3430398,8.4375 C45.1484375,8.14204545 45.0511364,7.77982955 45.0511364,7.35085227 C45.0511364,6.98153409 45.1221591,6.67755682 45.2642045,6.43892045 C45.40625,6.20028409 45.5980114,6.01136364 45.8394886,5.87215909 C46.0809659,5.73295455 46.3508523,5.62784091 46.6491477,5.55681818 C46.9474432,5.48579545 47.2514205,5.43181818 47.5610795,5.39488636 C47.953125,5.34943182 48.2713068,5.31178977 48.515625,5.28196023 C48.7599432,5.25213068 48.9375,5.203125 49.0482955,5.13494318 C49.1590909,5.06676136 49.2144886,4.95596591 49.2144886,4.80255682 L49.2144886,4.77272727 C49.2144886,4.40056818 49.1100852,4.11221591 48.9012784,3.90767045 C48.6924716,3.703125 48.3821023,3.60085227 47.9701705,3.60085227 C47.5411932,3.60085227 47.2038352,3.6953125 46.9580966,3.88423295 C46.712358,4.07315341 46.5426136,4.28267045 46.4488636,4.51278409 L45.2514205,4.24005682 C45.3934659,3.84232955 45.6015625,3.52059659 45.8757102,3.27485795 C46.149858,3.02911932 46.4659091,2.85014205 46.8238636,2.73792614 C47.1818182,2.62571023 47.5582386,2.56960227 47.953125,2.56960227 C48.2144886,2.56960227 48.4921875,2.60014205 48.7862216,2.66122159 C49.0802557,2.72230114 49.3558239,2.83380682 49.6129261,2.99573864 C49.8700284,3.15767045 50.0809659,3.38849432 50.2457386,3.68821023 C50.4105114,3.98792614 50.4928977,4.37642045 50.4928977,4.85369318 L50.4928977,9.20028409 L49.2485795,9.20028409 L49.2485795,8.30539773 L49.1974432,8.30539773 C49.1150568,8.47017045 48.9914773,8.63210227 48.8267045,8.79119318 C48.6619318,8.95028409 48.4502841,9.08238636 48.1917614,9.1875 C47.9332386,9.29261364 47.6235795,9.34517045 47.2627841,9.34517045 Z M47.5397727,8.32244318 C47.8920455,8.32244318 48.193892,8.25284091 48.4453125,8.11363636 C48.696733,7.97443182 48.8884943,7.79190341 49.0205966,7.56605114 C49.1526989,7.34019886 49.21875,7.09801136 49.21875,6.83948864 L49.21875,5.99573864 C49.1732955,6.04119318 49.0859375,6.08309659 48.9566761,6.12144886 C48.8274148,6.15980114 48.6803977,6.19247159 48.515625,6.21946023 C48.3508523,6.24644886 48.1903409,6.27059659 48.0340909,6.29190341 C47.8778409,6.31321023 47.7471591,6.33096591 47.6420455,6.34517045 C47.3948864,6.37642045 47.1697443,6.42897727 46.9666193,6.50284091 C46.7634943,6.57670455 46.6015625,6.68252841 46.4808239,6.8203125 C46.3600852,6.95809659 46.2997159,7.140625 46.2997159,7.36789773 C46.2997159,7.68323864 46.4161932,7.92116477 46.6491477,8.08167614 C46.8821023,8.2421875 47.1789773,8.32244318 47.5397727,8.32244318 Z" id="Shape"></path>
                <path d="M55.3678977,9.20028409 L55.3678977,2.65482955 L56.5994318,2.65482955 L56.5994318,3.69460227 L56.6676136,3.69460227 C56.7869318,3.34232955 56.9978693,3.06463068 57.3004261,2.86150568 C57.602983,2.65838068 57.9460227,2.55681818 58.3295455,2.55681818 C58.4090909,2.55681818 58.5035511,2.55965909 58.6129261,2.56534091 C58.7223011,2.57102273 58.8082386,2.578125 58.8707386,2.58664773 L58.8707386,3.80539773 C58.8196023,3.79119318 58.7286932,3.77485795 58.5980114,3.75639205 C58.4673295,3.73792614 58.3366477,3.72869318 58.2059659,3.72869318 C57.9048295,3.72869318 57.6370739,3.79190341 57.4026989,3.91832386 C57.1683239,4.04474432 56.9829545,4.21946023 56.8465909,4.44247159 C56.7102273,4.66548295 56.6420455,4.91903409 56.6420455,5.203125 L56.6420455,9.20028409 L55.3678977,9.20028409 Z" id="Path"></path>
                <path d="M59.9786932,2.65482955 L61.2528409,2.65482955 L61.2528409,9.62642045 C61.2528409,10.0639205 61.1740057,10.4332386 61.0163352,10.734375 C60.8586648,11.0355114 60.6257102,11.2642045 60.3174716,11.4204545 C60.009233,11.5767045 59.6292614,11.6548295 59.1775568,11.6548295 C59.1321023,11.6548295 59.0887784,11.6548295 59.0475852,11.6548295 C59.006392,11.6548295 58.9630682,11.6534091 58.9176136,11.6505682 L58.9176136,10.5553977 C58.9573864,10.5553977 58.9921875,10.5553977 59.022017,10.5553977 C59.0518466,10.5553977 59.0852273,10.5553977 59.1221591,10.5553977 C59.4232955,10.5553977 59.6413352,10.475142 59.7762784,10.3146307 C59.9112216,10.1541193 59.9786932,9.921875 59.9786932,9.61789773 L59.9786932,2.65482955 Z M60.609375,1.64488636 C60.3877841,1.64488636 60.1981534,1.5703125 60.040483,1.42116477 C59.8828125,1.27201705 59.8039773,1.09375 59.8039773,0.886363636 C59.8039773,0.676136364 59.8828125,0.496448864 60.040483,0.347301136 C60.1981534,0.198153409 60.3877841,0.123579545 60.609375,0.123579545 C60.8309659,0.123579545 61.0205966,0.198153409 61.178267,0.347301136 C61.3359375,0.496448864 61.4147727,0.676136364 61.4147727,0.886363636 C61.4147727,1.09375 61.3359375,1.27201705 61.178267,1.42116477 C61.0205966,1.5703125 60.8309659,1.64488636 60.609375,1.64488636 Z" id="Shape"></path>
                <path d="M65.7869318,9.33238636 C65.1420455,9.33238636 64.587358,9.19389205 64.1228693,8.91690341 C63.6583807,8.63991477 63.3004261,8.24928977 63.0490057,7.74502841 C62.7975852,7.24076705 62.671875,6.64914773 62.671875,5.97017045 C62.671875,5.29971591 62.7975852,4.70880682 63.0490057,4.19744318 C63.3004261,3.68607955 63.6526989,3.28693182 64.1058239,3 C64.5589489,2.71306818 65.0894886,2.56960227 65.6974432,2.56960227 C66.0667614,2.56960227 66.4247159,2.63068182 66.7713068,2.75284091 C67.1178977,2.875 67.4289773,3.06676136 67.7045455,3.328125 C67.9801136,3.58948864 68.1974432,3.92826705 68.3565341,4.34446023 C68.515625,4.76065341 68.5951705,5.265625 68.5951705,5.859375 L68.5951705,6.31107955 L63.3920455,6.31107955 L63.3920455,5.35653409 L67.3465909,5.35653409 C67.3465909,5.02130682 67.2784091,4.72372159 67.1420455,4.46377841 C67.0056818,4.20383523 66.8146307,3.99857955 66.568892,3.84801136 C66.3231534,3.69744318 66.0355114,3.62215909 65.7059659,3.62215909 C65.3480114,3.62215909 65.0362216,3.70951705 64.7705966,3.88423295 C64.5049716,4.05894886 64.3004261,4.28622159 64.1569602,4.56605114 C64.0134943,4.84588068 63.9417614,5.14914773 63.9417614,5.47585227 L63.9417614,6.22159091 C63.9417614,6.65909091 64.0191761,7.03125 64.1740057,7.33806818 C64.3288352,7.64488636 64.5454545,7.87855114 64.8238636,8.0390625 C65.1022727,8.19957386 65.4275568,8.27982955 65.7997159,8.27982955 C66.0411932,8.27982955 66.2613636,8.24502841 66.4602273,8.17542614 C66.6590909,8.10582386 66.8309659,8.00142045 66.9758523,7.86221591 C67.1207386,7.72301136 67.2315341,7.55113636 67.3082386,7.34659091 L68.5142045,7.56392045 C68.4176136,7.91903409 68.2450284,8.22940341 67.9964489,8.49502841 C67.7478693,8.76065341 67.4367898,8.96661932 67.0632102,9.11292614 C66.6896307,9.25923295 66.2642045,9.33238636 65.7869318,9.33238636 Z" id="Path"></path>
                <path d="M74.9190341,4.25284091 L73.7642045,4.45738636 C73.7159091,4.30965909 73.6399148,4.16903409 73.5362216,4.03551136 C73.4325284,3.90198864 73.2926136,3.79261364 73.1164773,3.70738636 C72.9403409,3.62215909 72.7201705,3.57954545 72.4559659,3.57954545 C72.0951705,3.57954545 71.7940341,3.65980114 71.5525568,3.8203125 C71.3110795,3.98082386 71.1903409,4.1875 71.1903409,4.44034091 C71.1903409,4.65909091 71.2713068,4.83522727 71.4332386,4.96875 C71.5951705,5.10227273 71.8565341,5.21164773 72.2173295,5.296875 L73.2571023,5.53551136 C73.859375,5.67471591 74.3082386,5.88920455 74.6036932,6.17897727 C74.8991477,6.46875 75.046875,6.84517045 75.046875,7.30823864 C75.046875,7.70028409 74.9339489,8.04900568 74.7080966,8.35440341 C74.4822443,8.65980114 74.1683239,8.89914773 73.7663352,9.07244318 C73.3643466,9.24573864 72.8991477,9.33238636 72.3707386,9.33238636 C71.6377841,9.33238636 71.0397727,9.17542614 70.5767045,8.86150568 C70.1136364,8.54758523 69.8295455,8.10085227 69.7244318,7.52130682 L70.9559659,7.33380682 C71.0326705,7.65482955 71.1903409,7.89701705 71.4289773,8.06036932 C71.6676136,8.22372159 71.9786932,8.30539773 72.3622159,8.30539773 C72.7798295,8.30539773 73.1136364,8.21803977 73.3636364,8.04332386 C73.6136364,7.86860795 73.7386364,7.65482955 73.7386364,7.40198864 C73.7386364,7.19744318 73.662642,7.02556818 73.5106534,6.88636364 C73.3586648,6.74715909 73.1264205,6.64204545 72.8139205,6.57102273 L71.7059659,6.328125 C71.0951705,6.18892045 70.6441761,5.96732955 70.352983,5.66335227 C70.0617898,5.359375 69.9161932,4.97443182 69.9161932,4.50852273 C69.9161932,4.12215909 70.0241477,3.78409091 70.2400568,3.49431818 C70.4559659,3.20454545 70.7542614,2.97798295 71.1349432,2.81463068 C71.515625,2.65127841 71.9517045,2.56960227 72.4431818,2.56960227 C73.1505682,2.56960227 73.7073864,2.72230114 74.1136364,3.02769886 C74.5198864,3.33309659 74.7883523,3.74147727 74.9190341,4.25284091 Z M71.5823864,0 L72.4602273,1.14204545 L73.3338068,0 L74.4886364,0 L74.4886364,0.0639204545 L72.9886364,1.87073864 L71.9275568,1.87073864 L70.4318182,0.0639204545 L70.4318182,0 L71.5823864,0 Z" id="Shape"></path>
                <path d="M79.265625,9.33238636 C78.6207386,9.33238636 78.0660511,9.19389205 77.6015625,8.91690341 C77.1370739,8.63991477 76.7791193,8.24928977 76.5276989,7.74502841 C76.2762784,7.24076705 76.1505682,6.64914773 76.1505682,5.97017045 C76.1505682,5.29971591 76.2762784,4.70880682 76.5276989,4.19744318 C76.7791193,3.68607955 77.131392,3.28693182 77.584517,3 C78.037642,2.71306818 78.5681818,2.56960227 79.1761364,2.56960227 C79.5454545,2.56960227 79.9034091,2.63068182 80.25,2.75284091 C80.5965909,2.875 80.9076705,3.06676136 81.1832386,3.328125 C81.4588068,3.58948864 81.6761364,3.92826705 81.8352273,4.34446023 C81.9943182,4.76065341 82.0738636,5.265625 82.0738636,5.859375 L82.0738636,6.31107955 L76.8707386,6.31107955 L76.8707386,5.35653409 L80.8252841,5.35653409 C80.8252841,5.02130682 80.7571023,4.72372159 80.6207386,4.46377841 C80.484375,4.20383523 80.2933239,3.99857955 80.0475852,3.84801136 C79.8018466,3.69744318 79.5142045,3.62215909 79.1846591,3.62215909 C78.8267045,3.62215909 78.5149148,3.70951705 78.2492898,3.88423295 C77.9836648,4.05894886 77.7791193,4.28622159 77.6356534,4.56605114 C77.4921875,4.84588068 77.4204545,5.14914773 77.4204545,5.47585227 L77.4204545,6.22159091 C77.4204545,6.65909091 77.4978693,7.03125 77.6526989,7.33806818 C77.8075284,7.64488636 78.0241477,7.87855114 78.3025568,8.0390625 C78.5809659,8.19957386 78.90625,8.27982955 79.2784091,8.27982955 C79.5198864,8.27982955 79.7400568,8.24502841 79.9389205,8.17542614 C80.1377841,8.10582386 80.3096591,8.00142045 80.4545455,7.86221591 C80.5994318,7.72301136 80.7102273,7.55113636 80.7869318,7.34659091 L81.9928977,7.56392045 C81.8963068,7.91903409 81.7237216,8.22940341 81.475142,8.49502841 C81.2265625,8.76065341 80.915483,8.96661932 80.5419034,9.11292614 C80.1683239,9.25923295 79.7428977,9.33238636 79.265625,9.33238636 Z" id="Path"></path>
                <path d="M84.7670455,5.31392045 L84.7670455,9.20028409 L83.4928977,9.20028409 L83.4928977,2.65482955 L84.7159091,2.65482955 L84.7159091,3.72017045 L84.796875,3.72017045 C84.9474432,3.37357955 85.1839489,3.09517045 85.506392,2.88494318 C85.8288352,2.67471591 86.2357955,2.56960227 86.7272727,2.56960227 C87.1732955,2.56960227 87.5639205,2.66264205 87.8991477,2.84872159 C88.234375,3.03480114 88.4943182,3.31107955 88.6789773,3.67755682 C88.8636364,4.04403409 88.9559659,4.49715909 88.9559659,5.03693182 L88.9559659,9.20028409 L87.6818182,9.20028409 L87.6818182,5.19034091 C87.6818182,4.71590909 87.5582386,4.34446023 87.3110795,4.07599432 C87.0639205,3.80752841 86.7244318,3.67329545 86.2926136,3.67329545 C85.9971591,3.67329545 85.7350852,3.73721591 85.506392,3.86505682 C85.2776989,3.99289773 85.0973011,4.1796875 84.9651989,4.42542614 C84.8330966,4.67116477 84.7670455,4.96732955 84.7670455,5.31392045 Z" id="Path"></path>
                <path d="M90.6605114,2.65482955 L91.9346591,2.65482955 L91.9346591,9.62642045 C91.9346591,10.0639205 91.8558239,10.4332386 91.6981534,10.734375 C91.540483,11.0355114 91.3075284,11.2642045 90.9992898,11.4204545 C90.6910511,11.5767045 90.3110795,11.6548295 89.859375,11.6548295 C89.8139205,11.6548295 89.7705966,11.6548295 89.7294034,11.6548295 C89.6882102,11.6548295 89.6448864,11.6534091 89.5994318,11.6505682 L89.5994318,10.5553977 C89.6392045,10.5553977 89.6740057,10.5553977 89.7038352,10.5553977 C89.7336648,10.5553977 89.7670455,10.5553977 89.8039773,10.5553977 C90.1051136,10.5553977 90.3231534,10.475142 90.4580966,10.3146307 C90.5930398,10.1541193 90.6605114,9.921875 90.6605114,9.61789773 L90.6605114,2.65482955 Z M91.2911932,1.64488636 C91.0696023,1.64488636 90.8799716,1.5703125 90.7223011,1.42116477 C90.5646307,1.27201705 90.4857955,1.09375 90.4857955,0.886363636 C90.4857955,0.676136364 90.5646307,0.496448864 90.7223011,0.347301136 C90.8799716,0.198153409 91.0696023,0.123579545 91.2911932,0.123579545 C91.5127841,0.123579545 91.7024148,0.198153409 91.8600852,0.347301136 C92.0177557,0.496448864 92.0965909,0.676136364 92.0965909,0.886363636 C92.0965909,1.09375 92.0177557,1.27201705 91.8600852,1.42116477 C91.7024148,1.5703125 91.5127841,1.64488636 91.2911932,1.64488636 Z" id="Shape"></path>
                <path d="M95.5525568,9.34517045 C95.1377841,9.34517045 94.7627841,9.26775568 94.4275568,9.11292614 C94.0923295,8.95809659 93.8274148,8.73295455 93.6328125,8.4375 C93.4382102,8.14204545 93.3409091,7.77982955 93.3409091,7.35085227 C93.3409091,6.98153409 93.4119318,6.67755682 93.5539773,6.43892045 C93.6960227,6.20028409 93.8877841,6.01136364 94.1292614,5.87215909 C94.3707386,5.73295455 94.640625,5.62784091 94.9389205,5.55681818 C95.2372159,5.48579545 95.5411932,5.43181818 95.8508523,5.39488636 C96.2428977,5.34943182 96.5610795,5.31178977 96.8053977,5.28196023 C97.0497159,5.25213068 97.2272727,5.203125 97.3380682,5.13494318 C97.4488636,5.06676136 97.5042614,4.95596591 97.5042614,4.80255682 L97.5042614,4.77272727 C97.5042614,4.40056818 97.399858,4.11221591 97.1910511,3.90767045 C96.9822443,3.703125 96.671875,3.60085227 96.2599432,3.60085227 C95.8309659,3.60085227 95.493608,3.6953125 95.2478693,3.88423295 C95.0021307,4.07315341 94.8323864,4.28267045 94.7386364,4.51278409 L93.5411932,4.24005682 C93.6832386,3.84232955 93.8913352,3.52059659 94.165483,3.27485795 C94.4396307,3.02911932 94.7556818,2.85014205 95.1136364,2.73792614 C95.4715909,2.62571023 95.8480114,2.56960227 96.2428977,2.56960227 C96.5042614,2.56960227 96.7819602,2.60014205 97.0759943,2.66122159 C97.3700284,2.72230114 97.6455966,2.83380682 97.9026989,2.99573864 C98.1598011,3.15767045 98.3707386,3.38849432 98.5355114,3.68821023 C98.7002841,3.98792614 98.7826705,4.37642045 98.7826705,4.85369318 L98.7826705,9.20028409 L97.5383523,9.20028409 L97.5383523,8.30539773 L97.4872159,8.30539773 C97.4048295,8.47017045 97.28125,8.63210227 97.1164773,8.79119318 C96.9517045,8.95028409 96.7400568,9.08238636 96.4815341,9.1875 C96.2230114,9.29261364 95.9133523,9.34517045 95.5525568,9.34517045 Z M95.8295455,8.32244318 C96.1818182,8.32244318 96.4836648,8.25284091 96.7350852,8.11363636 C96.9865057,7.97443182 97.178267,7.79190341 97.3103693,7.56605114 C97.4424716,7.34019886 97.5085227,7.09801136 97.5085227,6.83948864 L97.5085227,5.99573864 C97.4630682,6.04119318 97.3757102,6.08309659 97.2464489,6.12144886 C97.1171875,6.15980114 96.9701705,6.19247159 96.8053977,6.21946023 C96.640625,6.24644886 96.4801136,6.27059659 96.3238636,6.29190341 C96.1676136,6.31321023 96.0369318,6.33096591 95.9318182,6.34517045 C95.6846591,6.37642045 95.459517,6.42897727 95.256392,6.50284091 C95.053267,6.57670455 94.8913352,6.68252841 94.7705966,6.8203125 C94.649858,6.95809659 94.5894886,7.140625 94.5894886,7.36789773 C94.5894886,7.68323864 94.7059659,7.92116477 94.9389205,8.08167614 C95.171875,8.2421875 95.46875,8.32244318 95.8295455,8.32244318 Z" id="Shape"></path>
                <path d="M0.161931818,24.2002841 L0.161931818,17.6548295 L1.43607955,17.6548295 L1.43607955,24.2002841 L0.161931818,24.2002841 Z M0.805397727,16.6448864 C0.583806818,16.6448864 0.394176136,16.5703125 0.236505682,16.4211648 C0.0788352273,16.272017 0,16.09375 0,15.8863636 C0,15.6761364 0.0788352273,15.4964489 0.236505682,15.3473011 C0.394176136,15.1981534 0.583806818,15.1235795 0.805397727,15.1235795 C1.02698864,15.1235795 1.21661932,15.1981534 1.37428977,15.3473011 C1.53196023,15.4964489 1.61079545,15.6761364 1.61079545,15.8863636 C1.61079545,16.09375 1.53196023,16.272017 1.37428977,16.4211648 C1.21661932,16.5703125 1.02698864,16.6448864 0.805397727,16.6448864 Z" id="Shape"></path>
                <path d="M10.4744318,21.4857955 L10.4744318,17.6548295 L11.7528409,17.6548295 L11.7528409,24.2002841 L10.5,24.2002841 L10.5,23.0667614 L10.4318182,23.0667614 C10.28125,23.4161932 10.040483,23.7066761 9.70951705,23.9382102 C9.37855114,24.1697443 8.96732955,24.2855114 8.47585227,24.2855114 C8.05539773,24.2855114 7.68394886,24.1924716 7.36150568,24.006392 C7.0390625,23.8203125 6.78622159,23.5440341 6.60298295,23.1775568 C6.41974432,22.8110795 6.328125,22.3579545 6.328125,21.8181818 L6.328125,17.6548295 L7.60227273,17.6548295 L7.60227273,21.6647727 C7.60227273,22.1107955 7.72585227,22.4659091 7.97301136,22.7301136 C8.22017045,22.9943182 8.54119318,23.1264205 8.93607955,23.1264205 C9.17471591,23.1264205 9.41264205,23.0667614 9.64985795,22.9474432 C9.88707386,22.828125 10.084517,22.6477273 10.2421875,22.40625 C10.399858,22.1647727 10.4772727,21.8579545 10.4744318,21.4857955 Z" id="Path"></path>
                <path d="M18.3664773,19.2528409 L17.2116477,19.4573864 C17.1633523,19.3096591 17.087358,19.1690341 16.9836648,19.0355114 C16.8799716,18.9019886 16.7400568,18.7926136 16.5639205,18.7073864 C16.3877841,18.6221591 16.1676136,18.5795455 15.9034091,18.5795455 C15.5426136,18.5795455 15.2414773,18.6598011 15,18.8203125 C14.7585227,18.9808239 14.6377841,19.1875 14.6377841,19.4403409 C14.6377841,19.6590909 14.71875,19.8352273 14.8806818,19.96875 C15.0426136,20.1022727 15.3039773,20.2116477 15.6647727,20.296875 L16.7045455,20.5355114 C17.3068182,20.6747159 17.7556818,20.8892045 18.0511364,21.1789773 C18.3465909,21.46875 18.4943182,21.8451705 18.4943182,22.3082386 C18.4943182,22.7002841 18.381392,23.0490057 18.1555398,23.3544034 C17.9296875,23.6598011 17.615767,23.8991477 17.2137784,24.0724432 C16.8117898,24.2457386 16.3465909,24.3323864 15.8181818,24.3323864 C15.0852273,24.3323864 14.4872159,24.1754261 14.0241477,23.8615057 C13.5610795,23.5475852 13.2769886,23.1008523 13.171875,22.5213068 L14.4034091,22.3338068 C14.4801136,22.6548295 14.6377841,22.897017 14.8764205,23.0603693 C15.1150568,23.2237216 15.4261364,23.3053977 15.8096591,23.3053977 C16.2272727,23.3053977 16.5610795,23.2180398 16.8110795,23.0433239 C17.0610795,22.868608 17.1860795,22.6548295 17.1860795,22.4019886 C17.1860795,22.1974432 17.1100852,22.0255682 16.9580966,21.8863636 C16.806108,21.7471591 16.5738636,21.6420455 16.2613636,21.5710227 L15.1534091,21.328125 C14.5426136,21.1889205 14.0916193,20.9673295 13.8004261,20.6633523 C13.509233,20.359375 13.3636364,19.9744318 13.3636364,19.5085227 C13.3636364,19.1221591 13.4715909,18.7840909 13.6875,18.4943182 C13.9034091,18.2045455 14.2017045,17.977983 14.5823864,17.8146307 C14.9630682,17.6512784 15.3991477,17.5696023 15.890625,17.5696023 C16.5980114,17.5696023 17.1548295,17.7223011 17.5610795,18.0276989 C17.9673295,18.3330966 18.2357955,18.7414773 18.3664773,19.2528409 Z" id="Path"></path>
                <polygon id="Path" points="21.1661932 15.4730114 21.1661932 24.2002841 19.8920455 24.2002841 19.8920455 15.4730114"></polygon>
                <path d="M27.0255682,21.4857955 L27.0255682,17.6548295 L28.3039773,17.6548295 L28.3039773,24.2002841 L27.0511364,24.2002841 L27.0511364,23.0667614 L26.9829545,23.0667614 C26.8323864,23.4161932 26.5916193,23.7066761 26.2606534,23.9382102 C25.9296875,24.1697443 25.5184659,24.2855114 25.0269886,24.2855114 C24.6065341,24.2855114 24.2350852,24.1924716 23.912642,24.006392 C23.5901989,23.8203125 23.337358,23.5440341 23.1541193,23.1775568 C22.9708807,22.8110795 22.8792614,22.3579545 22.8792614,21.8181818 L22.8792614,17.6548295 L24.1534091,17.6548295 L24.1534091,21.6647727 C24.1534091,22.1107955 24.2769886,22.4659091 24.5241477,22.7301136 C24.7713068,22.9943182 25.0923295,23.1264205 25.4872159,23.1264205 C25.7258523,23.1264205 25.9637784,23.0667614 26.2009943,22.9474432 C26.4382102,22.828125 26.6356534,22.6477273 26.7933239,22.40625 C26.9509943,22.1647727 27.0284091,21.8579545 27.0255682,21.4857955 Z" id="Path"></path>
                <path d="M32.7571023,26.7911932 C32.2372159,26.7911932 31.790483,26.7230114 31.4169034,26.5866477 C31.0433239,26.4502841 30.7386364,26.2698864 30.5028409,26.0454545 C30.2670455,25.8210227 30.0909091,25.5752841 29.9744318,25.3082386 L31.0696023,24.8565341 C31.1463068,24.9815341 31.2492898,25.1143466 31.3785511,25.2549716 C31.5078125,25.3955966 31.6839489,25.515625 31.9069602,25.6150568 C32.1299716,25.7144886 32.4176136,25.7642045 32.7698864,25.7642045 C33.2528409,25.7642045 33.6519886,25.647017 33.9673295,25.412642 C34.2826705,25.178267 34.4403409,24.8053977 34.4403409,24.2940341 L34.4403409,23.0071023 L34.359375,23.0071023 C34.2826705,23.1463068 34.1725852,23.3011364 34.0291193,23.4715909 C33.8856534,23.6420455 33.6889205,23.7897727 33.4389205,23.9147727 C33.1889205,24.0397727 32.8636364,24.1022727 32.4630682,24.1022727 C31.9460227,24.1022727 31.4808239,23.9808239 31.0674716,23.7379261 C30.6541193,23.4950284 30.3274148,23.1356534 30.087358,22.6598011 C29.8473011,22.1839489 29.7272727,21.5980114 29.7272727,20.9019886 C29.7272727,20.2059659 29.8458807,19.609375 30.0830966,19.1122159 C30.3203125,18.6150568 30.6463068,18.2336648 31.0610795,17.9680398 C31.4758523,17.7024148 31.9460227,17.5696023 32.4715909,17.5696023 C32.8778409,17.5696023 33.2059659,17.6370739 33.4559659,17.772017 C33.7059659,17.9069602 33.9012784,18.0639205 34.0419034,18.2428977 C34.1825284,18.421875 34.2911932,18.5795455 34.3678977,18.7159091 L34.4616477,18.7159091 L34.4616477,17.6548295 L35.7102273,17.6548295 L35.7102273,24.3451705 C35.7102273,24.9076705 35.5795455,25.3693182 35.3181818,25.7301136 C35.0568182,26.0909091 34.7038352,26.3579545 34.259233,26.53125 C33.8146307,26.7045455 33.3139205,26.7911932 32.7571023,26.7911932 Z M32.7443182,23.0454545 C33.1107955,23.0454545 33.4211648,22.959517 33.6754261,22.787642 C33.9296875,22.615767 34.1228693,22.368608 34.2549716,22.0461648 C34.3870739,21.7237216 34.453125,21.3366477 34.453125,20.8849432 C34.453125,20.4446023 34.3877841,20.0568182 34.2571023,19.7215909 C34.1264205,19.3863636 33.9346591,19.1242898 33.6818182,18.9353693 C33.4289773,18.7464489 33.1164773,18.6519886 32.7443182,18.6519886 C32.3607955,18.6519886 32.0411932,18.7507102 31.7855114,18.9481534 C31.5298295,19.1455966 31.337358,19.4133523 31.2080966,19.7514205 C31.0788352,20.0894886 31.0142045,20.4673295 31.0142045,20.8849432 C31.0142045,21.3139205 31.0795455,21.6903409 31.2102273,22.0142045 C31.3409091,22.3380682 31.5348011,22.5909091 31.7919034,22.7727273 C32.0490057,22.9545455 32.3664773,23.0454545 32.7443182,23.0454545 Z" id="Shape"></path>
                <path d="M40.2400568,24.3323864 C39.5951705,24.3323864 39.040483,24.193892 38.5759943,23.9169034 C38.1115057,23.6399148 37.7535511,23.2492898 37.5021307,22.7450284 C37.2507102,22.240767 37.125,21.6491477 37.125,20.9701705 C37.125,20.2997159 37.2507102,19.7088068 37.5021307,19.1974432 C37.7535511,18.6860795 38.1058239,18.2869318 38.5589489,18 C39.0120739,17.7130682 39.5426136,17.5696023 40.1505682,17.5696023 C40.5198864,17.5696023 40.8778409,17.6306818 41.2244318,17.7528409 C41.5710227,17.875 41.8821023,18.0667614 42.1576705,18.328125 C42.4332386,18.5894886 42.6505682,18.928267 42.8096591,19.3444602 C42.96875,19.7606534 43.0482955,20.265625 43.0482955,20.859375 L43.0482955,21.3110795 L37.8451705,21.3110795 L37.8451705,20.3565341 L41.7997159,20.3565341 C41.7997159,20.0213068 41.7315341,19.7237216 41.5951705,19.4637784 C41.4588068,19.2038352 41.2677557,18.9985795 41.022017,18.8480114 C40.7762784,18.6974432 40.4886364,18.6221591 40.1590909,18.6221591 C39.8011364,18.6221591 39.4893466,18.709517 39.2237216,18.884233 C38.9580966,19.0589489 38.7535511,19.2862216 38.6100852,19.5660511 C38.4666193,19.8458807 38.3948864,20.1491477 38.3948864,20.4758523 L38.3948864,21.2215909 C38.3948864,21.6590909 38.4723011,22.03125 38.6271307,22.3380682 C38.7819602,22.6448864 38.9985795,22.8785511 39.2769886,23.0390625 C39.5553977,23.1995739 39.8806818,23.2798295 40.2528409,23.2798295 C40.4943182,23.2798295 40.7144886,23.2450284 40.9133523,23.1754261 C41.1122159,23.1058239 41.2840909,23.0014205 41.4289773,22.8622159 C41.5738636,22.7230114 41.6846591,22.5511364 41.7613636,22.3465909 L42.9673295,22.5639205 C42.8707386,22.9190341 42.6981534,23.2294034 42.4495739,23.4950284 C42.2009943,23.7606534 41.8899148,23.9666193 41.5163352,24.1129261 C41.1427557,24.259233 40.7173295,24.3323864 40.2400568,24.3323864 Z" id="Path"></path>
                <path d="M45.3068182,24.28125 C45.0738636,24.28125 44.8735795,24.1981534 44.7059659,24.0319602 C44.5383523,23.865767 44.4545455,23.6647727 44.4545455,23.4289773 C44.4545455,23.1960227 44.5383523,22.9964489 44.7059659,22.8302557 C44.8735795,22.6640625 45.0738636,22.5809659 45.3068182,22.5809659 C45.5397727,22.5809659 45.7400568,22.6640625 45.9076705,22.8302557 C46.0752841,22.9964489 46.1590909,23.1960227 46.1590909,23.4289773 C46.1590909,23.5852273 46.1200284,23.727983 46.0419034,23.8572443 C45.9637784,23.9865057 45.8607955,24.0894886 45.7329545,24.1661932 C45.6051136,24.2428977 45.4630682,24.28125 45.3068182,24.28125 Z" id="Path"></path>
            </g>
        </g>
    </g>
</svg>